@startuml class-diagram
!theme plain
!pragma ratio 1
' skinparam groupInheritance 2
skinparam linetype ortho
skinparam DefaultFontName sans-serif
skinparam DefaultFontSize 16
skinparam ArrowFontSize 13
skinparam ArrowMessageAlignment direction
skinparam Padding 4
skinparam Nodesep 70
skinparam Ranksep 80
skinparam MinClassWidth 220

Class DAPTScript as "**DAPT Script**" [[#dapt-script]] {
    Script Represents [[[#script-represents]]]
    Script Type [[[#script-type]]]
    Default Language [[[#default-language]]]
    {field} (optional) Text Language Source [[[#text-language-source]]]
}

together {
    Class Character as "**Character**" [[#character]] {
        Character Identifier [[[#dfn-character-identifier]]]
        Name [[[#dfn-character-name]]]
        {field} (optional) Talent Name [[[#dfn-character-talent-name]]]
    }

    Class ScriptEvent as "**Script Event**" [[#script-event]] {
        Script Event Identifier [[[#dfn-script-event-identifier]]]
        {field} Represents [[[#represents]]]
        {field} {abstract} (optional) Begin [[[#dfn-begin]]]
        {field} {abstract} (optional) End [[[#dfn-end]]]
        {field} {abstract} (optional) Duration [[[#dfn-duration]]]
        {field} (optional) On Screen [[[#on-screen]]]
    }

    Class ScriptEventDescription as "**Script Event Description**" [[#dfn-script-event-description]] {
        {field} Description
        {field} (optional) Description Type [[[#dfn-description-type]]]
        {field} (optional) Language
    }

    Class Text as "**Text**" [[#text]] {
        Text content [[[#dfn-text]]]
        {field} (optional) Text Language Source [[[#text-language-source]]]
        {field} (optional) Language
        {field} (optional) Represents [[[#represents]]]
        ' {field} (optional) Inline Style Attributes
    }
}

together {
    abstract Class Audio as "**Audio**" [[#dfn-audio]] {
    }

    Class SynthesizedAudio as "**Synthesized Audio**" [[#dfn-synthesized-audio]] {
        Rate [[[#dfn-rate]]]
        {field} (optional) Pitch [[[#dfn-pitch]]]
    }

    Class AudioRecording as "**Audio Recording**" [[#dfn-audio-recording]] {
        Source [ ] [[[#dfn-source]]]
        Type [ ] [[[#dfn-type]]]
        {field} {abstract} (optional) Begin [[[#dfn-begin]]]
        {field} {abstract} (optional) End [[[#dfn-end]]]
        {field} {abstract} (optional) Duration [[[#dfn-duration]]]
        {field} (optional) In Time [[[#dfn-in-time]]]
        {field} (optional) Out Time [[[#dfn-out-time]]]
    }

}

class MixingInstruction as "**Mixing Instruction**" [[#dfn-mixing-instruction]] {
    {field} (optional) Gain [[[#dfn-gain]]]
    {field} (optional) Pan [[[#dfn-pan]]]
    {field} {abstract} (optional) Begin [[[#dfn-begin]]]
    {field} {abstract} (optional) End [[[#dfn-end]]]
    {field} {abstract} (optional) Duration [[[#dfn-duration]]]
    {field} (optional) Fill [[[#dfn-fill]]]
}

' MixingInstruction -[hidden]r-AudioRecording


DAPTScript *-down- "0..* " ScriptEvent : contains\n >
DAPTScript *-- "0..*" Character : contains >
ScriptEvent *-down- "0..*" MixingInstruction : contains\n >
Text *-left- "0..* " Audio : contains\n <
Text *-- "0..* " MixingInstruction : contains\n >
Character "0..*" <.right. "0..*" ScriptEvent
ScriptEvent *-left- "0..*" ScriptEventDescription : contains\n <
ScriptEvent *-down- "0..*" Text : contains\n >
AudioRecording *-- "0..* " MixingInstruction : contains >
Audio <|-down- SynthesizedAudio : is\n <
Audio <|-down- AudioRecording : is\n <

SynthesizedAudio -[hidden]r- AudioRecording

' Hidden links to persuade the layout to look nicer
' MixingInstruction -[hidden]left- Text
' Text -[hidden]down- Audio
AudioRecording -[hidden]left- SynthesizedAudio
Audio -[hidden]left- MixingInstruction
' ScriptEventDescription -[hidden]down- MixingInstruction

hide empty members
hide circle
@enduml